{"title":"Psych-Out(1968)MP-4[DaScubaDude]","uid":12964430,"size":895728087,"categoryP":"video","categoryS":"movies","magnet":"?xt=urn:btih:ca5109fcba9fca370311eb996f0dd9579f1fad89&amp;dn=Psych-Out%281968%29MP-4%5BDaScubaDude%5D&amp;tr=udp%3A%2F%2Ftracker.leechers-paradise.org%3A6969&amp;tr=udp%3A%2F%2Fzer0day.ch%3A1337&amp;tr=udp%3A%2F%2Fopen.demonii.com%3A1337&amp;tr=udp%3A%2F%2Ftracker.coppersurfer.tk%3A6969&amp;tr=udp%3A%2F%2Fexodus.desync.com%3A6969","seeders":0,"leechers":1,"uploader":"dascuba","files":1,"time":1449878764,"description":"Psych-Out\r\nNot Rated | 1h 41min | Drama, Music, Thriller | 6 March 1968 (USA)\r\n Psych-Out Poster\r\nA deaf runaway arrives in San Francisco's Haight-Ashbury hippie district looking for her missing brother.\r\nDirector: Richard Rush\r\nWriters: E. Hunter Willett (screenplay), Betty Ulius (screenplay) | 1 more credit »\r\nStars: Susan Strasberg, Dean Stockwell, Jack Nicholson\r\n\r\nGeneral\r\nComplete name                            :Psych OutPSYCH_OUT_Title1.mp4\r\nFormat                                   : MPEG-4\r\nFormat profile                           : Base Media\r\nCodec ID                                 : isom\r\nFile size                                : 854 MiB\r\nDuration                                 : 1h 29mn\r\nOverall bit rate mode                    : Variable\r\nOverall bit rate                         : 1 335 Kbps\r\nMovie name                               : PSYCH_OUT\r\nGenre                                    : Drama\r\nWriting application                      : Lavf54.6.100\r\n\r\nVideo\r\nID                                       : 1\r\nFormat                                   : AVC\r\nFormat/Info                              : Advanced Video Codec\r\nFormat profile                           :   \r\nFormat settings, CABAC                   : No\r\nFormat settings, ReFrames                : 6 frames\r\nCodec ID                                 : avc1\r\nCodec ID/Info                            : Advanced Video Coding\r\nDuration                                 : 1h 29mn\r\nBit rate                                 : 1 195 Kbps\r\nWidth                                    : 720 pixels\r\nHeight                                   : 404 pixels\r\nDisplay aspect ratio                     : 16:9\r\nFrame rate mode                          : Constant\r\nFrame rate                               : 29.970 fps\r\nColor space                              : YUV\r\nChroma subsampling                       : 4:2:0\r\nBit depth                                : 8 bits\r\nScan type                                : Progressive\r\nBits/(Pixel*Frame)                       : 0.137\r\nStream size                              : 765 MiB (90%)\r\n\r\nAudio\r\nID                                       : 2\r\nFormat                                   : AAC\r\nFormat/Info                              : Advanced Audio Codec\r\nFormat profile                           : LC\r\nCodec ID                                 : 40\r\nDuration                                 : 1h 29mn\r\nBit rate mode                            : Variable\r\nBit rate                                 : 132 Kbps\r\nMaximum bit rate                         : 154 Kbps\r\nChannel(s)                               : 2 channels\r\nChannel positions                        : Front: L R\r\nSampling rate                            : 44.1 KHz\r\nCompression mode                         : Lossy\r\nStream size                              : 85.0 MiB (10%)","torrent":{"xt":"urn:btih:ca5109fcba9fca370311eb996f0dd9579f1fad89","amp;dn":"Psych-Out%281968%29MP-4%5BDaScubaDude%5D","amp;tr":["udp%3A%2F%2Ftracker.leechers-paradise.org%3A6969","udp%3A%2F%2Fzer0day.ch%3A1337","udp%3A%2F%2Fopen.demonii.com%3A1337","udp%3A%2F%2Ftracker.coppersurfer.tk%3A6969","udp%3A%2F%2Fexodus.desync.com%3A6969"],"infoHash":"ca5109fcba9fca370311eb996f0dd9579f1fad89","infoHashBuffer":{"type":"Buffer","data":[202,81,9,252,186,159,202,55,3,17,235,153,111,13,217,87,159,31,173,137]},"announce":[],"urlList":[]}}